<svg xmlns="http://www.w3.org/2000/svg" xmlns:xlink="http://www.w3.org/1999/xlink" viewBox="0 0 636.2 574.46"><defs><style>.cls-1,.cls-2{fill-rule:evenodd;}.cls-1{fill:url(#linear-gradient);}.cls-2{fill:url(#linear-gradient-2);}</style><linearGradient id="linear-gradient" y1="287.23" x2="636.2" y2="287.23" gradientUnits="userSpaceOnUse"><stop offset="0" stop-color="#c79f62"/><stop offset="1" stop-color="#6a3906"/></linearGradient><linearGradient id="linear-gradient-2" x1="107.93" y1="255.12" x2="148.24" y2="255.12" xlink:href="#linear-gradient"/></defs><g id="图层_2" data-name="图层 2"><g id="图层_1-2" data-name="图层 1">sss<path class="cls-1" d="M331.4,574.46c-93-7.78-167.91-48.09-222.12-124.57C87.9,419.71,74.39,385.74,65.8,349.66c-4.39-18.41-11.5-35.89-31.92-42.78-3.06-1-6.41-2-9.57-1.81C1.49,306.31-3.35,290.24,2,274.09c19.92-60.55,60.87-98.55,123.15-114.41,44-11.21,84.81-2,124.37,15.95,61.81,28.12,112.69,71.68,160.31,118.89,45,44.66,88.28,91.13,132.35,136.79a19.89,19.89,0,0,0,3,2c16.26-20.88,27.89-44.24,35.8-69,8.91-27.91,14.61-56.86,12.33-86.39-7.78-100.78-56.81-174.42-148.66-217C395.29,38.06,342.88,34.72,289.51,47c-42.48,9.8-79.44,29.31-111.22,59-8.52,8-20.54,9.8-27.76,4.45-9.6-7.11-11.87-22.32-2.53-29.84,19.47-15.68,39.42-31,60.46-44.42,21.9-14,46.69-22.24,72-27.8,25.68-5.64,51.61-10.49,77.32-7.5h0c3.31.21,7.5.87,9.93,1.12,31.94,3.34,30.25,3.34,46.89,7.4C479.49,25.22,532.53,60,573.15,113c31.72,41.34,50.73,87.9,57,140,5.31,44.33,1.64,87.7-13.82,129-9.62,25.72-24.78,49.46-38.4,73.54-3.57,6.3-4.26,9.36,1.22,14.63,17.64,17,34.74,34.48,51.89,51.94,5.92,6,6.85,18.27,2.35,24.46-6.18,8.5-15.72,10.87-25.23,5.94a33.28,33.28,0,0,1-7.87-5.71q-23.79-23.46-47.33-47.13c-2.07-2.08-3.86-4.45-6.45-7.46-24.65,23.79-51,42.35-80.85,55.65-29.15,13-60.05,23-91.51,24-5.49,1.09-10.59,1.76-16.48,2.4M46.29,269.08c24.16,5.51,39.09,19.81,47.63,40.66a248.83,248.83,0,0,1,10.82,33.58c7.41,29.49,18.67,57.28,36,82.3,37.95,54.79,89.23,89.56,154.77,103.65,37.87,8.15,75.48,7,112.43-2.27,39.84-10,75.16-29.63,105.58-57.77,5-4.65,4.05-7.06.33-11C495.1,438.46,477,418,457.6,398.88c-43.42-42.7-86.34-86-131.68-126.6-35.29-31.59-74.67-58-121.32-71.43-47.42-13.63-90.17-5.23-128,26.29A100.62,100.62,0,0,0,46.29,269.08Z"/><path class="cls-2" d="M127.81,235.61c9.91-.25,19.83,8.91,20.41,18.83s-9.43,20.11-20,20.2c-10.22.09-19.85-8.81-20.3-18.76C107.49,245.77,117.18,235.88,127.81,235.61Z"/></g></g></svg>